<?xml version="1.0" standalone="no"?><!DOCTYPE svg PUBLIC "-//W3C//DTD SVG 1.1//EN" "http://www.w3.org/Graphics/SVG/1.1/DTD/svg11.dtd"><svg class="icon" width="128px" height="123.30px" viewBox="0 0 1063 1024" version="1.1" xmlns="http://www.w3.org/2000/svg"><path fill="#2c2c2c" d="M894.086379 170.737542c-94.192691-99.933555-221.342193-155.428571-358.48505-157.129569-4.465116-1.913621-9.355482-1.913621-13.607974 0.212625-136.292359 2.126246-262.378738 57.833887-355.933554 156.916944C78.671096 263.654485 30.61794 384.637874 30.61794 511.787375c0 129.913621 49.966777 253.023256 140.544851 346.365449 92.916944 95.893688 217.51495 149.475083 350.830564 151.601329 1.913621 0.850498 4.039867 1.275748 6.166113 1.275747 2.33887 0 4.465116-0.637874 6.591363-1.275747 134.378738-1.275748 260.039867-55.069767 353.807309-151.813954 90.790698-93.342193 140.757475-216.451827 140.757475-346.365448 0.212625-126.936877-47.840532-247.920266-135.229236-340.837209z m-423.335548-121.196014c-4.677741 3.827243-9.355482 8.079734-14.033223 11.906977-2.76412 2.33887-5.315615 4.465116-8.079734 6.803987-9.355482 8.504983-18.710963 17.435216-27.641196 26.790697-1.488372 1.488372-2.76412 3.189369-4.465117 4.890366-7.44186 7.86711-14.671096 15.946844-21.475083 24.239202-2.76412 3.189369-5.315615 6.591362-7.867109 9.993356-5.740864 7.229236-11.481728 14.671096-16.797342 22.325581-2.551495 3.401993-4.890365 6.803987-7.229236 10.20598-6.378738 9.355482-12.54485 18.923588-18.498339 28.704319-1.063123 1.700997-2.126246 3.189369-3.189369 4.890366-6.803987 11.481728-12.9701 23.388704-18.923588 35.295681-1.488372 3.401993-2.976744 6.803987-4.677741 9.993355-2.551495 5.740864-5.315615 11.269103-7.867109 16.797343-4.677741-2.551495-9.568106-5.10299-14.245848-7.86711-3.827243-2.126246-7.44186-4.252492-11.056478-6.378738-9.993355-6.166113-19.561462-12.54485-28.916944-19.561461-1.063123-0.637874-2.126246-1.275748-2.976744-2.126246-10.418605-7.654485-20.41196-15.734219-29.980066-24.239203-2.976744-2.551495-5.740864-5.315615-8.717608-8.079734-4.465116-4.252492-8.930233-8.504983-13.182724-12.757475 73.568106-73.355482 167.548173-119.282392 269.820598-131.827243z m-138.418605 259.827243c3.189369 1.275748 6.378738 2.551495 9.568106 4.039867 5.10299 2.126246 10.418605 4.039867 15.521595 5.953488 3.189369 1.275748 6.378738 2.33887 9.355482 3.401994 5.528239 1.913621 11.269103 3.614618 16.797342 5.315614 2.976744 0.850498 5.740864 1.913621 8.504983 2.76412 7.229236 2.126246 14.671096 4.039867 22.112957 5.740864 1.275748 0.212625 2.33887 0.637874 3.614618 0.850498 8.504983 1.913621 17.222591 3.614618 25.727575 5.10299 2.551495 0.425249 5.315615 0.850498 7.867109 1.275747 6.166113 1.063123 12.119601 1.913621 18.285715 2.551496 3.189369 0.425249 6.591362 0.637874 9.993355 1.063122 5.528239 0.637874 11.056478 1.063123 16.797342 1.488373 3.401993 0.212625 7.016611 0.425249 10.418605 0.637873 2.33887 0 4.890365 0.425249 7.229236 0.425249v145.860466H291.083056c0-2.551495 0-4.890365 0.212625-7.441861 0.212625-3.401993 0.212625-6.803987 0.425249-10.20598 0.212625-5.740864 0.637874-11.481728 1.063123-17.009967 0.212625-3.189369 0.637874-6.591362 0.850498-9.780731 0.637874-6.166113 1.275748-12.332226 2.126246-18.498339 0.425249-2.551495 0.637874-5.315615 1.063123-7.867109 1.275748-8.717608 2.76412-17.435216 4.252492-25.940199 0.212625-1.063123 0.425249-2.126246 0.850498-3.189369 1.275748-7.44186 2.976744-15.096346 4.677741-22.538206 0.637874-2.976744 1.488372-5.740864 2.126246-8.717608 1.488372-5.528239 2.976744-11.269103 4.465116-16.797342 1.063123-3.189369 1.913621-6.378738 2.976744-9.568107 1.488372-5.315615 3.189369-10.418605 4.890366-15.521594 1.063123-3.401993 2.33887-6.591362 3.401993-9.993356 0.637874-1.913621 1.488372-3.827243 2.126246-5.740864 2.126246 0.637874 3.827243 1.488372 5.740864 2.338871z m-154.152824-104.186047c4.252492 4.252492 8.930233 8.079734 13.395349 12.332226 3.401993 3.189369 6.803987 6.378738 10.20598 9.355482 9.355482 8.079734 18.710963 15.946844 28.704319 23.17608 1.275748 0.850498 2.33887 1.913621 3.614618 2.976744 11.269103 8.079734 22.750831 15.946844 34.445182 22.963455 3.614618 2.126246 7.229236 4.252492 10.843854 6.166113 6.166113 3.401993 11.906977 7.229236 18.07309 10.418605-0.850498 2.76412-1.913621 5.528239-2.76412 8.079734-1.275748 3.401993-2.551495 7.016611-3.614618 10.418604-1.913621 5.528239-3.614618 11.056478-5.315614 16.584718l-3.189369 10.20598c-1.700997 6.166113-3.401993 12.332226-4.890365 18.498339-0.850498 2.76412-1.488372 5.528239-2.126246 8.504983-2.126246 8.930233-4.039867 18.07309-5.740864 27.428572-0.212625 0.850498-0.425249 1.913621-0.637874 2.976744-1.488372 8.079734-2.976744 16.372093-4.039867 24.664452-0.425249 3.189369-0.637874 6.378738-1.275747 9.355482-0.850498 6.166113-1.488372 12.332226-2.126246 18.498338-0.425249 3.614618-0.637874 7.229236-0.850499 10.843854-0.425249 5.953488-0.850498 11.481728-1.275747 17.435216l-0.637874 11.481728c-0.212625 2.76412-0.212625 5.315615-0.425249 8.079734h-195.614618c3.827243-107.375415 44.225914-209.435216 115.242525-290.445183z m5.10299 618.524917C109.076412 741.847176 66.976744 637.873754 63.149502 527.734219h195.614618c0 2.976744 0.212625 5.740864 0.425249 8.717608 0.212625 4.039867 0.212625 8.079734 0.425249 12.119602 0.425249 5.953488 0.850498 12.119601 1.275747 17.860465 0.212625 3.827243 0.637874 7.654485 0.850499 11.481727 0.637874 6.378738 1.488372 12.757475 2.33887 19.348837 0.425249 3.189369 0.850498 6.591362 1.275748 9.780731 1.275748 8.930233 2.976744 17.647841 4.465116 26.365449 0.212625 0.850498 0.212625 1.488372 0.425249 2.33887 1.913621 9.568106 4.039867 18.923588 6.378738 28.27907 0.850498 3.189369 1.488372 5.953488 2.33887 9.142857 1.700997 6.378738 3.401993 12.757475 5.315615 18.923588 1.063123 3.614618 2.126246 7.229236 3.401993 10.631229 1.913621 5.740864 3.827243 11.481728 5.740864 17.009967 1.275748 3.614618 2.551495 7.44186 4.039867 11.056479 1.063123 2.76412 1.913621 5.528239 3.189369 8.504983-5.953488 3.189369-11.481728 6.378738-17.435216 9.780731-3.614618 2.126246-7.229236 4.039867-10.843854 5.953488-11.694352 7.016611-23.17608 14.458472-34.232558 22.325582-0.850498 0.637874-1.488372 1.275748-2.338871 1.913621-10.20598 7.44186-19.986711 15.30897-29.767441 23.388704-3.189369 2.76412-6.378738 5.953488-9.568107 8.717608-4.252492 4.039867-8.717608 8.079734-13.182724 12.332226z m22.538206 23.388705c4.252492-4.039867 8.292359-8.079734 12.757475-11.906977 2.976744-2.551495 5.740864-5.315615 8.717608-7.86711 9.568106-8.292359 19.561462-16.159468 29.767442-23.601329 0.637874-0.425249 1.488372-0.850498 2.126246-1.488372 9.568106-6.803987 19.348837-13.182724 29.342192-19.348837 3.401993-2.126246 7.229236-4.252492 10.843854-6.166113 4.677741-2.76412 9.355482-5.10299 14.033223-7.44186 2.551495 5.528239 5.315615 10.843854 7.86711 16.159468 1.488372 3.189369 2.976744 6.378738 4.67774 9.568106 5.953488 11.481728 12.332226 22.963455 18.923588 34.019934 1.063123 1.700997 2.126246 3.189369 3.189369 4.890365 5.740864 9.355482 11.906977 18.498339 18.07309 27.428572 2.33887 3.401993 4.677741 6.591362 7.229236 9.780731 5.315615 7.44186 11.056478 14.671096 16.797342 21.900332 2.551495 3.189369 4.890365 6.166113 7.44186 9.142857 7.44186 8.717608 14.883721 17.222591 22.750831 25.51495 0.850498 0.850498 1.700997 1.913621 2.551495 2.76412 8.717608 9.142857 17.860465 17.647841 27.215947 25.940199 2.76412 2.33887 5.315615 4.677741 8.079734 7.016611 4.252492 3.614618 8.292359 7.229236 12.544851 10.63123-99.72093-12.54485-191.787375-56.345515-264.930233-126.936877z m308.093023 118.644518c-1.913621-1.275748-3.827243-2.551495-5.740864-4.039867-3.827243-2.76412-7.654485-5.740864-11.481727-8.717608-5.740864-4.465116-11.481728-9.142857-17.222591-13.820598-3.827243-3.189369-7.44186-6.378738-11.056479-9.568107-5.528239-5.10299-11.056478-10.20598-16.372093-15.521594-3.401993-3.189369-6.803987-6.591362-9.993355-9.993356-5.528239-5.953488-11.056478-12.119601-16.372093-18.285714-2.76412-2.976744-5.528239-6.166113-8.079735-9.355482-7.229236-8.930233-14.245847-18.07309-21.049834-27.428571-0.637874-0.637874-1.063123-1.488372-1.700996-2.126246-7.229236-10.20598-14.033223-20.837209-20.624585-31.468439-2.126246-3.401993-4.039867-7.016611-5.953488-10.418604-4.465116-7.44186-8.717608-15.096346-12.544851-22.750831-2.126246-4.252492-4.252492-8.717608-6.378737-12.970099-2.126246-4.677741-4.252492-9.142857-6.378738-13.820598 1.700997-0.850498 3.401993-1.488372 5.10299-2.338871 2.976744-1.275748 5.953488-2.551495 9.142857-3.614618 4.677741-1.913621 9.355482-3.827243 14.033223-5.315614 2.976744-1.063123 5.740864-2.126246 8.717608-3.189369 5.10299-1.700997 10.418605-3.401993 15.734219-4.890366 2.551495-0.850498 4.890365-1.488372 7.441861-2.33887 7.654485-2.126246 15.521595-4.252492 23.388704-5.953489 0.425249 0 1.063123-0.212625 1.488372-0.425249 7.44186-1.488372 14.671096-2.976744 22.112957-4.465116 2.551495-0.425249 5.315615-0.850498 7.867109-1.063123 5.315615-0.850498 10.843854-1.488372 16.159469-2.33887 3.189369-0.212625 6.166113-0.637874 9.355482-0.850499l15.30897-1.275747c3.189369-0.212625 6.166113-0.425249 9.355481-0.637874 1.913621 0 3.827243 0 5.740864-0.212625v249.196014z m0-281.727575c-2.33887 0.212625-4.677741 0.212625-7.016611 0.425249l-10.20598 0.637874c-5.528239 0.212625-10.843854 0.850498-16.372093 1.275747-3.189369 0.212625-6.591362 0.637874-9.780731 1.063123-5.953488 0.637874-11.906977 1.488372-17.860465 2.551495-2.76412 0.425249-5.315615 0.637874-7.86711 1.275748-8.504983 1.488372-17.009967 3.189369-25.302325 4.890365-1.063123 0.212625-1.913621 0.637874-2.976745 0.850499-7.44186 1.700997-14.883721 3.614618-22.112956 5.740863-2.76412 0.850498-5.528239 1.700997-8.504984 2.551496-5.528239 1.700997-11.056478 3.401993-16.372093 5.315614-3.189369 1.063123-6.378738 2.126246-9.355481 3.401993l-15.308971 5.740864c-3.189369 1.275748-6.166113 2.551495-9.355481 3.827243-1.913621 0.850498-3.614618 1.275748-5.52824 2.33887-0.850498-2.33887-1.700997-4.465116-2.551495-6.803986-1.275748-3.401993-2.551495-6.803987-3.614617-9.993356-1.913621-5.528239-3.827243-10.843854-5.315615-16.372093-1.063123-3.189369-2.126246-6.591362-3.189369-9.780731-1.700997-5.740864-3.401993-11.906977-4.890365-17.64784-0.850498-2.976744-1.488372-5.740864-2.338871-8.717608-2.126246-8.292359-3.827243-16.372093-5.528239-24.664452 0-0.637874-0.212625-1.275748-0.425249-2.126246-1.700997-8.930233-3.401993-18.07309-4.677741-27.215947-0.425249-2.76412-0.850498-5.315615-1.063123-8.292359-0.850498-6.378738-1.700997-12.757475-2.33887-19.136212-0.212625-3.401993-0.637874-7.016611-0.850499-10.418605-0.425249-5.740864-0.850498-11.694352-1.275747-17.435216-0.212625-3.614618-0.425249-7.229236-0.637874-11.056478-0.212625-2.76412-0.212625-5.315615-0.212625-7.86711h222.830565v155.641196z m0-366.564784c-2.126246-0.212625-4.039867-0.212625-6.166113-0.212625-3.189369-0.212625-6.591362-0.425249-9.568106-0.425249-5.315615-0.425249-10.631229-0.850498-15.734219-1.275747-3.189369-0.212625-6.166113-0.637874-9.355482-1.063123-5.528239-0.637874-11.056478-1.488372-16.584718-2.338871-2.551495-0.425249-5.315615-0.637874-7.867109-1.275747-7.44186-1.275748-15.096346-2.76412-22.538206-4.465116-0.637874 0-1.063123-0.212625-1.700997-0.42525-8.079734-1.700997-15.946844-3.827243-24.026578-6.166113-2.33887-0.637874-4.677741-1.488372-7.016611-2.126245-5.528239-1.700997-11.056478-3.401993-16.584718-5.315615-2.976744-1.063123-5.740864-2.126246-8.504983-3.189369-4.890365-1.913621-9.993355-3.827243-14.883721-5.740864-2.976744-1.275748-5.740864-2.551495-8.717608-3.614618-1.913621-0.850498-3.827243-1.700997-5.740864-2.764119 2.126246-4.890365 4.252492-9.780731 6.591362-14.671096 2.126246-4.677741 4.252492-9.142857 6.591362-13.607974 4.039867-8.079734 8.504983-15.946844 12.757475-23.813953 1.913621-3.614618 3.827243-7.229236 5.953489-10.843854 6.591362-11.269103 13.607973-22.112957 20.837209-32.531562 0.850498-1.063123 1.700997-2.126246 2.551495-3.401993 6.591362-9.355482 13.395349-18.498339 20.624585-27.428571 2.76412-3.401993 5.740864-6.591362 8.504983-9.780731 5.528239-6.378738 10.843854-12.757475 16.584718-18.923588 3.401993-3.614618 7.016611-7.229236 10.418604-10.63123 5.528239-5.528239 11.056478-10.843854 16.584718-15.946843 3.827243-3.401993 7.654485-6.803987 11.481728-9.993356 5.740864-4.890365 11.481728-9.568106 17.435216-14.245847 4.039867-3.189369 7.86711-6.166113 11.906976-9.142857 2.126246-1.488372 4.252492-2.76412 6.378738-4.252492l-0.212625 259.614618z m368.053156-112.265781c71.016611 81.009967 111.415282 183.069767 115.242525 290.445183h-197.953488c0-2.551495-0.212625-5.10299-0.425249-7.654485-0.212625-4.039867-0.212625-7.86711-0.425249-12.119601-0.212625-5.528239-0.850498-11.056478-1.063123-16.372093-0.425249-3.827243-0.637874-7.86711-1.063123-11.481728-0.637874-5.740864-1.275748-11.694352-2.126246-17.435216-0.425249-3.401993-0.850498-6.803987-1.275748-10.418605-1.063123-7.654485-2.551495-15.30897-3.827242-22.75083-0.212625-1.488372-0.425249-3.189369-0.850498-4.677741-1.700997-9.142857-3.614618-18.07309-5.740864-27.003322-0.850498-2.976744-1.488372-5.953488-2.338871-8.717608-1.488372-6.166113-3.189369-12.119601-4.677741-18.285715-1.063123-3.401993-2.126246-6.803987-3.189368-9.993355-1.700997-5.528239-3.401993-11.056478-5.315615-16.584718-1.063123-3.401993-2.33887-6.803987-3.401993-10.20598-0.850498-2.76412-1.913621-5.528239-2.76412-8.292359 6.378738-3.189369 12.54485-7.016611 18.498339-10.631229 3.614618-2.126246 7.229236-4.039867 10.843854-6.166113 11.906977-7.229236 23.601329-15.096346 34.870432-23.388704 1.275748-0.850498 2.551495-1.913621 3.614618-2.976744 9.993355-7.44186 19.774086-15.30897 29.129568-23.601329 3.401993-3.189369 6.803987-6.378738 10.20598-9.355482 4.677741-3.827243 9.568106-7.86711 14.033222-12.332226z m-22.325581-23.601329c-4.465116 4.465116-8.930233 8.930233-13.607973 12.9701-2.976744 2.76412-5.740864 5.528239-8.717608 8.079734-9.780731 8.717608-19.986711 16.797342-30.405316 24.664452-1.063123 0.850498-2.126246 1.488372-3.189369 2.126246-9.568106 6.803987-19.348837 13.395349-29.342192 19.561462-3.827243 2.126246-7.44186 4.252492-11.269103 6.378737-4.677741 2.76412-9.568106 5.315615-14.671097 7.86711-2.33887-5.528239-5.10299-11.056478-7.654485-16.584718-1.700997-3.614618-3.189369-7.229236-5.10299-10.843854-5.953488-12.119601-12.332226-23.813953-18.923588-35.295681l-3.189369-5.10299c-5.740864-9.780731-11.906977-19.348837-18.285714-28.491694-2.551495-3.614618-4.890365-7.229236-7.44186-10.631229-5.315615-7.44186-10.843854-14.883721-16.584718-22.112957l-8.292359-10.20598c-6.803987-8.079734-13.607973-15.946844-20.837209-23.601329-1.913621-1.913621-3.401993-4.039867-5.315615-5.740864-8.930233-9.355482-18.07309-18.07309-27.641196-26.578073-2.551495-2.33887-5.315615-4.677741-8.079734-6.803987-4.890365-4.252492-9.568106-8.504983-14.458472-12.332226 103.335548 12.54485 198.378738 58.471761 273.009967 132.677741zM546.232558 59.109635c1.700997 1.275748 3.401993 2.126246 4.890366 3.401993 3.827243 2.76412 7.654485 5.953488 11.481727 8.930232 6.166113 4.677741 12.119601 9.568106 17.860465 14.671097 3.827243 3.189369 7.44186 6.591362 11.269103 9.993355 5.740864 5.315615 11.269103 10.843854 16.797342 16.372093 3.401993 3.401993 6.803987 6.803987 10.205981 10.418605 5.740864 6.166113 11.269103 12.54485 16.584717 18.923588 2.76412 3.189369 5.740864 6.591362 8.504984 9.993355 6.591362 8.292359 12.9701 16.797342 19.136212 25.514951l3.827243 5.10299c7.44186 10.631229 14.245847 21.687708 21.049834 32.95681 1.700997 2.976744 3.189369 5.953488 5.10299 9.142857 4.677741 8.292359 9.355482 16.797342 13.607973 25.514951 2.126246 4.252492 4.039867 8.717608 5.953488 12.970099 2.33887 5.10299 4.465116 10.20598 6.803987 15.30897-1.913621 0.850498-3.614618 1.700997-5.528239 2.551495-3.189369 1.275748-5.953488 2.551495-8.930233 3.614618-4.890365 1.913621-9.568106 3.827243-14.458471 5.52824-2.76412 1.063123-5.740864 2.126246-8.717608 3.189368l-15.946844 5.10299c-2.551495 0.850498-4.890365 1.488372-7.441861 2.126246-7.654485 2.126246-15.521595 4.252492-23.388704 6.166113-0.850498 0.212625-1.488372 0.212625-2.126246 0.425249-7.229236 1.700997-14.458472 3.189369-21.900332 4.465117-2.76412 0.212625-5.315615 0.637874-8.079734 1.063123-5.528239 0.850498-10.843854 1.700997-16.372093 2.33887-2.976744 0.212625-6.166113 0.637874-9.355482 1.063123-5.315615 0.425249-10.418605 0.850498-15.521595 1.275747-3.189369 0.212625-6.378738 0.425249-9.568106 0.42525-2.126246 0-4.039867 0.212625-5.953488 0.212624l0.212624-258.764119z m0 290.657807c2.33887 0 4.677741-0.212625 7.016611-0.425249 3.401993-0.212625 6.803987-0.425249 10.418605-0.637874l16.584718-1.275748c3.189369-0.425249 6.591362-0.637874 9.780731-1.063122 6.166113-0.850498 12.119601-1.488372 18.073089-2.551496 2.551495-0.425249 5.10299-0.850498 7.654485-1.063122 8.504983-1.488372 17.009967-3.189369 25.727575-5.10299 1.063123-0.212625 1.913621-0.425249 2.976744-0.850499 7.44186-1.700997 14.883721-3.827243 22.325582-5.740864 2.76412-0.850498 5.528239-1.700997 8.079734-2.551495 5.740864-1.700997 11.269103-3.401993 17.009967-5.315614 2.976744-1.063123 5.953488-2.126246 9.142857-3.189369 5.10299-1.913621 10.631229-4.039867 15.734219-6.166113 3.189369-1.275748 5.953488-2.551495 9.142857-3.827242 1.913621-0.850498 3.827243-1.488372 5.528239-2.338871 0.637874 1.913621 1.488372 3.827243 2.126246 5.740864 1.063123 3.189369 2.126246 6.591362 3.401994 9.780731 1.700997 5.10299 3.401993 10.20598 4.890365 15.521594 0.850498 3.189369 1.913621 6.591362 2.76412 9.780731 1.488372 5.528239 2.976744 11.269103 4.465116 16.584718 0.850498 2.976744 1.488372 5.740864 2.33887 8.717608 1.700997 7.44186 3.401993 14.883721 4.677741 22.538206 0.212625 1.063123 0.637874 2.126246 0.637874 3.189369 1.488372 8.504983 2.976744 17.222591 4.252492 25.940199 0.425249 2.551495 0.637874 5.315615 1.063123 7.86711 0.850498 6.166113 1.488372 12.119601 2.126245 18.285714 0.212625 3.189369 0.637874 6.591362 0.850499 9.780731 0.425249 5.528239 0.850498 11.269103 1.063123 16.797342 0.212625 3.401993 0.425249 6.803987 0.425249 10.20598 0.212625 2.551495 0.212625 4.890365 0.212624 7.229236H546.445183l-0.212625-145.860465z m0 177.966777h220.491694c-0.212625 2.551495-0.212625 5.315615-0.212624 7.86711-0.212625 3.614618-0.212625 7.44186-0.637874 11.056478-0.212625 5.740864-0.850498 11.481728-1.275747 17.222592-0.425249 3.614618-0.637874 7.016611-0.850499 10.631229-0.637874 6.166113-1.488372 12.54485-2.33887 18.710963-0.425249 2.76412-0.637874 5.740864-1.063123 8.717608-1.275748 9.142857-2.976744 18.07309-4.677741 27.003323-0.212625 0.850498-0.212625 1.700997-0.637874 2.551495-1.488372 8.079734-3.401993 16.159468-5.528239 24.239202-0.637874 2.976744-1.488372 5.953488-2.126246 8.930233-1.488372 5.953488-3.189369 11.694352-4.890365 17.435216l-3.189369 10.20598c-1.700997 5.315615-3.401993 10.631229-5.315615 15.946844-1.275748 3.401993-2.551495 7.016611-3.827242 10.418604l-2.551495 6.378738c-1.913621-0.850498-3.827243-1.488372-5.528239-2.338871-2.976744-1.275748-5.953488-2.551495-8.930233-3.614617-5.10299-2.126246-10.20598-4.039867-15.521595-5.953489-3.189369-1.063123-5.953488-2.126246-9.142857-3.189369-5.315615-1.913621-10.843854-3.614618-16.584717-5.10299-2.76412-0.850498-5.315615-1.700997-8.079735-2.551495-7.44186-2.126246-14.883721-3.827243-22.112956-5.740863-0.850498-0.212625-1.700997-0.637874-2.76412-0.637874-8.292359-1.913621-16.584718-3.401993-25.089701-4.890366-2.551495-0.425249-5.315615-0.850498-7.86711-1.063123-5.953488-0.850498-11.694352-1.700997-17.64784-2.551495-3.189369-0.425249-6.378738-0.637874-9.568106-0.850498-5.315615-0.637874-10.843854-1.063123-16.159469-1.275747-3.401993-0.212625-6.591362-0.425249-10.20598-0.637874-2.126246 0-4.465116-0.425249-6.803987-0.425249l0.637874-156.491695z m15.30897 425.036545c-3.614618 2.76412-7.229236 5.740864-10.843854 8.292359-1.488372 1.063123-3.189369 2.126246-4.465116 3.189369V716.54485c1.913621 0 3.827243 0 5.740864 0.212625 3.189369 0 6.166113 0.212625 9.355482 0.425249 5.10299 0.425249 10.20598 0.850498 15.096345 1.275748 3.189369 0.212625 6.166113 0.637874 9.355482 0.850498 5.315615 0.637874 10.631229 1.488372 15.734219 2.126246 2.76412 0.425249 5.315615 0.850498 8.079734 1.063123 7.229236 1.275748 14.458472 2.76412 21.687708 4.252492 0.637874 0 1.063123 0.212625 1.700997 0.212624 7.654485 1.700997 15.521595 3.827243 23.176079 5.953489 2.551495 0.637874 4.890365 1.488372 7.441861 2.126245 5.315615 1.488372 10.418605 3.189369 15.734219 4.890366 2.76412 1.063123 5.740864 1.913621 8.504984 3.189369 4.677741 1.700997 9.568106 3.401993 14.245847 5.315614l8.717608 3.401994c1.700997 0.850498 3.401993 1.488372 5.10299 2.33887l-6.378738 14.033223c-2.126246 4.252492-4.039867 8.504983-6.166113 12.970099-4.252492 8.079734-8.504983 15.946844-13.182724 23.601329-1.913621 3.189369-3.401993 6.378738-5.315615 9.568106-6.591362 10.843854-13.395349 21.262458-20.624584 31.468439-1.275748 1.700997-2.551495 3.189369-3.827243 4.890365-6.166113 8.504983-12.54485 16.797342-19.136212 24.877077-2.551495 3.189369-5.528239 6.378738-8.079735 9.568106-5.315615 6.166113-10.843854 12.54485-16.372093 18.285714-3.189369 3.401993-6.591362 6.803987-9.780731 9.993356-5.315615 5.315615-10.843854 10.631229-16.584717 15.946844-3.614618 3.189369-7.229236 6.378738-10.843854 9.355482-6.166113 4.677741-12.119601 9.568106-18.07309 14.033222z m25.089701 21.687708c4.465116-3.614618 8.930233-7.44186 13.182724-11.269103 2.551495-2.126246 5.315615-4.252492 7.86711-6.591362 9.355482-8.292359 18.498339-17.009967 27.428572-25.9402 1.063123-1.063123 2.126246-2.551495 3.189368-3.401993 7.654485-8.079734 15.096346-16.159468 22.325582-24.877076 2.551495-3.189369 5.10299-6.166113 7.654485-9.355482 5.740864-7.016611 11.269103-14.245847 16.797342-21.687708 2.551495-3.401993 4.890365-6.591362 7.229236-9.993355 6.166113-8.930233 12.119601-18.07309 17.860465-27.428572 1.063123-1.700997 2.126246-3.401993 3.189369-5.315614 6.591362-11.056478 12.9701-22.538206 18.923588-34.019934 1.700997-3.401993 3.189369-6.803987 4.890365-9.993355 2.551495-5.315615 5.315615-10.631229 7.654485-15.946844 4.890365 2.551495 9.780731 5.10299 14.671097 7.867109 3.614618 1.913621 7.229236 3.827243 10.631229 5.953489 10.631229 6.378738 21.049834 12.9701 30.830565 20.199335 0.425249 0.212625 0.850498 0.425249 1.275747 0.850499 10.418605 7.44186 20.41196 15.521595 30.192691 23.813953 2.976744 2.551495 5.740864 5.315615 8.717608 7.86711 4.465116 3.827243 8.717608 8.079734 12.9701 12.119601-73.780731 71.016611-166.697674 115.0299-267.481728 127.149502z m290.232558-150.750831c-4.465116-4.252492-9.142857-8.292359-13.820598-12.54485-3.401993-2.976744-6.591362-6.166113-9.993355-8.930233-9.568106-8.292359-19.774086-16.159468-29.980067-23.601329-0.850498-0.637874-1.488372-1.275748-2.551495-1.913621-11.269103-8.079734-22.750831-15.521595-34.445182-22.538206-3.614618-2.126246-7.229236-4.039867-10.843854-5.953488-5.953488-3.401993-11.906977-6.803987-17.860465-9.993356 1.063123-2.76412 2.126246-5.740864 3.189369-8.504983l3.827242-10.843854c2.126246-5.740864 3.827243-11.481728 5.740864-17.435216l3.189369-10.20598c1.913621-6.378738 3.614618-12.9701 5.528239-19.348837 0.850498-2.76412 1.488372-5.740864 2.126246-8.504984 2.33887-9.355482 4.465116-18.923588 6.378737-28.279069 0-0.425249 0.212625-0.850498 0.212625-1.275748 1.700997-9.142857 3.401993-18.285714 4.677741-27.428571 0.425249-3.189369 0.850498-6.166113 1.275747-9.355482l2.551495-19.774086c0.212625-3.614618 0.637874-7.229236 0.850499-11.056479 0.425249-6.166113 1.063123-12.332226 1.275747-18.498339l0.637874-11.481727c0.212625-2.976744 0.425249-5.953488 0.425249-8.930233h197.740864c-3.614618 110.777409-45.92691 214.750831-120.132891 296.398671z"  /></svg>